<?xml version="1.0" encoding="UTF-8"?>
<!DOCTYPE svg PUBLIC "-//W3C//DTD SVG 1.1//EN" "http://www.w3.org/Graphics/SVG/1.1/DTD/svg11.dtd">
<svg version="1.1" xmlns="http://www.w3.org/2000/svg" xmlns:xlink="http://www.w3.org/1999/xlink" x="0px" y="0px" width="1024" height="1024" viewBox="0, 0, 1024, 1024">
  <g id="_x36_1._Download">
    <path d="M955.272,399.434 L856.591,399.434 C856.492,399.434 856.417,399.406 856.343,399.406 L609.083,399.406 L722.476,273.46 C741.787,252.039 735.285,234.627 707.987,234.627 L609.083,234.627 L609.083,69.849 C609.083,39.529 586.928,14.922 559.631,14.922 L460.727,14.922 C433.429,14.922 411.275,39.529 411.275,69.849 L411.275,234.627 L312.37,234.627 C285.073,234.627 278.57,252.039 297.881,273.46 L411.275,399.406 L164.014,399.406 C163.94,399.406 163.866,399.434 163.767,399.434 L65.11,399.434 C37.812,399.434 15.658,424.013 15.658,454.333 C15.658,484.652 37.812,509.259 65.11,509.259 L65.11,893.743 C65.11,954.409 109.394,1003.595 164.014,1003.595 L856.343,1003.595 C910.963,1003.595 955.247,954.409 955.247,893.743 L955.247,509.259 L955.272,509.259 C982.57,509.259 1004.724,484.652 1004.724,454.333 C1004.724,424.013 982.57,399.434 955.272,399.434 z M856.343,893.743 L164.014,893.743 L164.014,509.286 L164.014,509.286 L164.014,399.434 L411.275,399.434 L475.191,470.426 C494.502,491.875 525.806,491.875 545.117,470.426 L609.033,399.434 L856.343,399.434 L856.343,893.743 z" fill="#000000"/>
    <g>
      <path d="M510.2,691.086 L455.223,636.169 L453.228,634.169 C421.717,602.621 370.363,602.621 339.004,634.047 C307.388,665.451 307.388,716.519 339.004,747.958 C370.363,779.481 421.579,779.481 453.08,747.958 L510.2,691.086 z" fill="#FFFFFF"/>
      <path d="M510.201,691.012 L510.201,768.583 L510.316,771.436 C510.316,815.909 474.111,852.179 429.485,852.179 C384.855,852.179 348.657,816.138 348.657,771.662 C348.657,727.134 384.99,691.012 429.485,691.012 L510.201,691.012 z" fill="#FFFFFF"/>
      <path d="M510.201,691.012 L510.201,768.583 L510.316,771.436 C510.316,815.909 474.111,852.179 429.485,852.179 C384.855,852.179 348.657,816.138 348.657,771.662 C348.657,727.134 384.99,691.012 429.485,691.012 L510.201,691.012 z" fill="#FFFFFF"/>
      <path d="M510.201,691.012 L510.201,768.583 L510.316,771.436 C510.316,815.909 474.111,852.179 429.485,852.179 C384.855,852.179 348.657,816.138 348.657,771.662 C348.657,766.702 349.19,761.9 350.02,757.282 C381.514,779.156 425.075,776.054 453.077,747.981 L510.201,691.086 L510.201,691.012 z" fill="#FFFFFF"/>
      <path d="M429.485,701.176 C390.598,701.176 358.985,732.728 358.985,771.662 C358.985,810.444 390.598,841.925 429.485,841.925 C468.503,841.925 500.001,810.444 500.001,771.662 L500.001,768.605 L500.001,701.176 L429.64,701.176 L429.485,701.176 z" fill="#8BC037"/>
      <path d="M510.201,691.012 L565.139,745.833 L567.4,747.833 C598.786,779.339 598.93,830.488 567.4,861.905 C535.784,893.351 484.706,893.351 453.08,861.905 C421.579,830.488 421.579,779.397 453.08,747.904 L510.201,691.012 z" fill="#FFFFFF"/>
      <path d="M460.449,755.137 C432.855,782.608 432.855,827.245 460.449,854.639 C487.915,882.12 532.585,882.12 560.179,854.639 C587.654,827.242 587.654,782.608 560.179,755.137 L557.881,753.076 L510.201,705.437 L460.449,755.043 L460.449,755.137 z" fill="#8BC037"/>
      <path d="M510.201,691.012 L588.046,691.012 L590.877,690.877 C635.52,690.877 671.717,726.983 671.717,771.51 C671.717,816.063 635.642,852.024 591.012,852.024 C546.378,852.024 510.201,815.999 510.201,771.51 L510.201,691.012 z" fill="#FFFFFF"/>
      <path d="M520.506,771.51 C520.506,810.389 551.99,841.873 591.015,841.873 C629.862,841.873 661.36,810.389 661.36,771.51 C661.36,732.583 629.862,701.176 591.015,701.176 L588.059,701.176 L520.506,701.176 L520.506,771.323 L520.506,771.51 z" fill="#8BC037"/>
      <path d="M510.201,691.012 L565.135,636.114 L567.265,634.047 C598.779,602.621 649.965,602.492 681.473,633.905 C712.987,665.415 712.987,716.406 681.473,747.903 C649.965,779.397 598.779,779.397 567.265,747.903 L510.201,691.012 z" fill="#FFFFFF"/>
      <path d="M574.634,740.619 C601.988,768.174 646.628,768.174 674.232,740.619 C701.849,713.192 701.849,668.681 674.232,641.184 C646.628,613.715 601.988,613.715 574.634,641.184 L572.373,643.332 L524.778,691.012 L574.384,740.561 L574.634,740.619 z" fill="#8BC037"/>
      <path d="M510.2,691.012 L510.2,613.38 L510.2,610.488 C510.2,566.048 546.237,529.862 591.012,529.862 C635.52,529.862 671.573,565.813 671.573,610.356 C671.573,654.894 635.523,691.009 591.012,691.009 L510.2,691.009 z" fill="#FFFFFF"/>
      <g>
        <path d="M591.012,680.777 C629.859,680.777 661.357,649.28 661.357,610.369 C661.357,571.607 629.859,540.036 591.012,540.036 C551.99,540.036 520.358,571.607 520.358,610.369 L520.503,613.384 L520.503,680.777 L590.604,680.777 L591.012,680.777 z" fill="#F99F38"/>
        <path d="M510.201,691.012 L455.223,636.115 L453.081,634.169 C421.58,602.621 421.58,551.517 453.081,520.097 C484.447,488.616 535.662,488.616 567.272,520.097 C598.786,551.52 598.786,602.621 567.272,634.047 L510.201,691.012 z" fill="#FFFFFF"/>
      </g>
      <path d="M560.034,627.49 C587.497,600.009 587.497,555.407 560.034,527.968 C532.45,500.513 487.915,500.513 460.324,527.968 C432.71,555.41 432.71,600.009 460.324,627.49 L462.335,629.596 L510.204,677.154 L559.886,627.612 L560.034,627.49 z" fill="#0081C6"/>
      <path d="M510.201,691.669 L432.424,691.669 L429.485,691.746 C384.99,691.746 348.657,655.625 348.657,611.116 C348.657,566.64 384.855,530.531 429.35,530.531 C473.986,530.531 510.201,566.64 510.201,611.145 L510.201,691.669 z" fill="#FFFFFF"/>
      <path d="M499.988,611.145 C499.988,572.27 468.493,540.812 429.35,540.812 C390.486,540.812 358.867,572.27 358.867,611.094 C358.867,649.94 390.486,681.512 429.35,681.512 L432.424,681.434 L499.988,681.434 L499.988,611.3 L499.988,611.145 z" fill="#0081C6"/>
      <path d="M510.201,691.669 L315.274,691.746 C315.274,671.145 323.041,650.497 339.001,634.704 C370.36,603.281 421.576,603.281 453.077,634.704 L510.201,691.669 z" fill="#FFFFFF"/>
      <path d="M445.839,641.934 L495.706,691.669 L429.485,691.669 C393.699,691.669 363.261,714.944 352.692,747.288 C350.537,745.424 348.252,743.53 346.258,741.408 C318.641,713.926 318.641,669.483 346.258,641.934 C373.589,614.495 418.373,614.495 445.839,641.934" fill="#0081C6"/>
      <path d="M445.964,641.995 L485.427,681.389 L429.297,681.56 C396.993,681.56 369.751,659.905 361.487,630.337 C388.281,615.352 423.376,618.952 445.836,641.937 L445.964,641.995 z" fill="#005EA5"/>
      <path d="M500.014,611.287 L499.955,667.009 L460.337,627.48 C437.522,604.669 433.507,570.161 448.525,543.417 C478.143,551.694 500.011,578.856 500.011,611.136 L500.011,611.287 z" fill="#005EA5"/>
      <path d="M520.199,667.132 L520.199,611.236 C520.199,579.027 542.031,551.819 571.688,543.472 C586.687,570.289 583.863,603.906 560.324,627.148 L520.199,667.132 z" fill="#005EA5"/>
      <path d="M534.921,680.806 L574.499,641.213 C597.301,618.421 631.922,614.569 658.743,629.532 C650.278,659.084 624.445,680.313 592.651,680.832 L534.921,680.806 z" fill="#FFDF4F"/>
      <path d="M534.918,701.138 L590.939,701.138 C623.243,701.138 650.462,722.664 658.783,752.283 C631.824,767.32 597.216,763.381 574.315,740.599 L534.918,701.138 z" fill="#48A64A"/>
      <path d="M520.499,771.14 L520.499,715.511 L560.179,754.979 C582.994,777.832 586.855,812.501 571.856,839.245 C542.228,830.93 520.499,803.658 520.499,771.407 L520.499,771.14 z" fill="#48A64A"/>
      <path d="M460.541,755.002 L499.978,715.646 L500.067,771.565 C500.067,803.796 478.37,830.884 448.742,839.242 C433.734,812.447 437.753,777.858 460.541,755.114 L460.541,755.002 z" fill="#48A64A"/>
      <path d="M429.886,701.154 L485.651,701.154 L446.106,740.677 C423.34,763.439 388.446,767.369 361.668,752.399 C370.09,722.76 397.336,701.154 429.64,701.154 L429.886,701.154 z" fill="#48A64A"/>
    </g>
  </g>
  <defs/>
</svg>
